<?xml version="1.0" encoding="UTF-8" standalone="no"?>
<!-- Uploaded to: SVG Repo, www.svgrepo.com, Generator: SVG Repo Mixer Tools -->

<svg
   fill="#000000"
   height="800"
   width="800"
   version="1.1"
   id="Layer_1"
   viewBox="0 0 489 489"
   xml:space="preserve"
   xmlns="http://www.w3.org/2000/svg"
   xmlns:svg="http://www.w3.org/2000/svg"><defs
   id="defs3" />
<g
   id="g3">
	<g
   id="g2">
		<circle
   style="fill:#ffdd55;stroke:#690600;stroke-width:1.78123;stroke-opacity:0"
   id="path3"
   cx="248.56984"
   cy="246.02425"
   r="237.49689" /><path
   d="M 244.5,0 C 109.3,0 0,109.3 0,244.5 0,379.7 109.3,489 244.5,489 379.7,489 489,379.8 489,244.5 489,109.2 379.8,0 244.5,0 Z m 20.8,447.4 V 437 c 0,-11.4 -9.4,-20.8 -20.8,-20.8 -11.4,0 -20.8,9.4 -20.8,20.8 v 10.4 C 127.9,437.6 51.4,361.1 41.7,265.4 H 51 c 11.4,0 20.8,-9.4 20.8,-20.8 0,-11.4 -9.4,-20.8 -20.8,-20.8 H 41.7 C 51.5,128 128,51.5 223.7,41.8 V 51 c 0,11.4 9.4,20.8 20.8,20.8 11.4,0 20.8,-9.4 20.8,-20.8 v -9.3 c 95.8,9.8 172.3,86.3 182,182 H 437 c -11.4,0 -20.8,9.4 -20.8,20.8 0,11.4 9.4,20.8 20.8,20.8 h 10.4 c -9.8,95.8 -86.3,172.3 -182.1,182.1 z"
   id="path1" />
		<path
   d="m 244.5,124.9 c -11.4,0 -20.8,9.4 -20.8,20.8 v 91.5 L 129,353.8 c -7.3,9.4 -5.2,21.8 3.1,29.1 11.6,8.5 23.9,2.1 28.1,-3.1 L 261.2,257 c 2.1,-3.1 4.2,-7.3 4.2,-12.5 v -98.8 c -0.1,-11.5 -9.4,-20.8 -20.9,-20.8 z"
   id="path2" />
	</g>
</g>
</svg>
